<?xml version="1.0" encoding="utf-8"?>
<svg xmlns="http://www.w3.org/2000/svg" viewBox="0 0 30 30" width="50" height="50">
  <path d="M6 4C4.897 4 4 4.897 4 6L4 9L6 9L6 6L9 6L9 4L6 4 z M 11 4L11 6L14 6L14 4L11 4 z M 16 4L16 6L19 6L19 4L16 4 z M 21 4L21 6L24 6L24 9L26 9L26 6C26 4.897 25.103 4 24 4L21 4 z M 20 9C18.895 9 18 9.895 18 11C18 12.105 18.895 13 20 13C21.105 13 22 12.105 22 11C22 9.895 21.105 9 20 9 z M 4 11L4 14L6 14L6 11L4 11 z M 24.001953 11L24.001953 14L26 14L26 11L24.001953 11 z M 10 14.009766C9.3755 14.009766 8.7518906 14.248109 8.2753906 14.724609L8 15L8 21L22 21L22 19L18.726562 15.724609C17.860563 14.858609 16.509687 14.789094 15.554688 15.496094L16.681641 16.621094C17.104641 17.044094 17.104641 17.730344 16.681641 18.152344C16.259641 18.574344 15.57825 18.57825 15.15625 18.15625L11.726562 14.724609C11.250062 14.248109 10.6245 14.009766 10 14.009766 z M 4 16L4 19L6 19L6 16L4 16 z M 24.001953 16L24.001953 19L26 19L26 16L24.001953 16 z M 4 21L4 24C4 25.103 4.897 26 6 26L9 26L9 24L6 24L6 21L4 21 z M 24.001953 21L24.001953 24L21 24L21 26L24 26C25.103 26 26 25.103 26 24L26 21L24.001953 21 z M 11 24L11 26L14 26L14 24L11 24 z M 16 24L16 26L19 26L19 24L16 24 z" fill="#FFFFFF" />
</svg>