<?xml version="1.0" encoding="utf-8"?>
<svg xmlns="http://www.w3.org/2000/svg" viewBox="0 0 24 24">
  <path d="M6 3C4.3550302 3 3 4.3550302 3 6L3 18C3 19.64497 4.3550302 21 6 21L18 21C19.64497 21 21 19.64497 21 18L21 6C21 4.3550302 19.64497 3 18 3L6 3 z M 6 5L18 5C18.56503 5 19 5.4349698 19 6L19 18C19 18.56503 18.56503 19 18 19L6 19C5.4349698 19 5 18.56503 5 18L5 6C5 5.4349698 5.4349698 5 6 5 z M 11.984375 6.9863281 A 1.0001 1.0001 0 0 0 11 8L11 11L8 11 A 1.0001 1.0001 0 1 0 8 13L11 13L11 16 A 1.0001 1.0001 0 1 0 13 16L13 13L16 13 A 1.0001 1.0001 0 1 0 16 11L13 11L13 8 A 1.0001 1.0001 0 0 0 11.984375 6.9863281 z" fill="#FFFFFF" />
</svg>